<svg width="1873" height="179" viewBox="0 0 1873 179" fill="none" xmlns="http://www.w3.org/2000/svg">
<g opacity="0.6" filter="url(#filter0_f_2564_352)">
<path d="M186.519 80.9445C182.276 47.5242 153.662 21.5996 119.096 21.5996C92.3361 21.5996 69.0914 37.2417 58.4789 61.8943C37.6227 68.1279 22 87.8189 22 108.986C22 135.755 43.7786 157.534 70.5478 157.534H177.353C198.772 157.534 216.191 140.115 216.191 118.695C216.176 109.992 213.246 101.544 207.867 94.7013C202.489 87.8585 194.973 83.0151 186.519 80.9445Z" fill="black"/>
<mask id="mask0_2564_352" style="mask-type:alpha" maskUnits="userSpaceOnUse" x="22" y="21" width="195" height="137">
<path d="M186.519 80.9445C182.276 47.5242 153.662 21.5996 119.096 21.5996C92.3361 21.5996 69.0914 37.2417 58.4789 61.8943C37.6227 68.1279 22 87.8189 22 108.986C22 135.755 43.7786 157.534 70.5478 157.534H177.353C198.772 157.534 216.191 140.115 216.191 118.695C216.176 109.992 213.246 101.544 207.867 94.7013C202.489 87.8585 194.973 83.0151 186.519 80.9445Z" fill="black"/>
</mask>
<g mask="url(#mask0_2564_352)">
<g filter="url(#filter1_f_2564_352)">
<circle cx="124.864" cy="117.248" r="99.2865" transform="rotate(-45 124.864 117.248)" fill="url(#paint0_linear_2564_352)"/>
</g>
<mask id="mask1_2564_352" style="mask-type:alpha" maskUnits="userSpaceOnUse" x="19" y="11" width="213" height="213">
<circle cx="125.519" cy="117.251" r="106.096" fill="#D9D9D9"/>
</mask>
<g mask="url(#mask1_2564_352)">
<circle cx="125.518" cy="117.248" r="106.096" transform="rotate(-45 125.518 117.248)" fill="url(#paint1_linear_2564_352)"/>
<path d="M172.969 45.7626C186.288 45.0645 199.486 48.601 210.671 55.8649L239.752 74.75C250.937 82.014 259.536 92.6327 264.316 105.084L276.742 137.455C281.522 149.907 282.237 163.552 278.785 176.435L269.811 209.928C266.359 222.81 258.917 234.27 248.552 242.663L221.605 264.485C211.24 272.878 198.484 277.775 185.165 278.473L150.538 280.287C137.219 280.985 124.021 277.449 112.835 270.185L83.7545 251.3C72.569 244.036 63.9701 233.417 59.1905 220.966L46.7643 188.594C41.9846 176.143 41.2695 162.498 44.7215 149.615L53.6959 116.122C57.1478 103.239 64.5896 91.7801 74.9546 83.3867L101.902 61.5653C112.267 53.1719 125.023 48.2753 138.342 47.5773L172.969 45.7626Z" fill="white" fill-opacity="0.32"/>
<path d="M200.214 73.4188C213.533 72.7208 226.731 76.2572 237.917 83.5212L266.997 102.406C278.183 109.67 286.781 120.289 291.561 132.74L303.987 165.112C308.767 177.563 309.482 191.208 306.03 204.091L297.056 237.584C293.604 250.467 286.162 261.926 275.797 270.319L248.85 292.141C238.485 300.534 225.729 305.431 212.41 306.129L177.783 307.944C164.464 308.642 151.266 305.105 140.08 297.841L111 278.956C99.8141 271.692 91.2153 261.073 86.4356 248.622L74.0094 216.251C69.2297 203.799 68.5146 190.154 71.9666 177.271L80.941 143.778C84.3929 130.896 91.8347 119.436 102.2 111.043L129.147 89.2216C139.512 80.8282 152.268 75.9315 165.587 75.2335L200.214 73.4188Z" fill="white" fill-opacity="0.32"/>
<path d="M224.947 102.905C238.266 102.207 251.464 105.744 262.65 113.008L291.73 131.893C302.916 139.157 311.515 149.775 316.294 162.227L328.721 194.598C333.5 207.049 334.215 220.694 330.763 233.577L321.789 267.07C318.337 279.953 310.895 291.412 300.53 299.806L273.583 321.627C263.218 330.02 250.462 334.917 237.143 335.615L202.516 337.43C189.197 338.128 175.999 334.591 164.814 327.327L135.733 308.442C124.547 301.178 115.949 290.56 111.169 278.108L98.7428 245.737C93.9631 233.286 93.248 219.641 96.7 206.758L105.674 173.265C109.126 160.382 116.568 148.923 126.933 140.529L153.88 118.708C164.245 110.314 177.001 105.418 190.32 104.72L224.947 102.905Z" fill="white" fill-opacity="0.32"/>
<path d="M248.531 132.843C261.85 132.145 275.048 135.681 286.234 142.945L315.314 161.83C326.5 169.094 335.099 179.713 339.878 192.164L352.305 224.536C357.084 236.987 357.799 250.632 354.347 263.515L345.373 297.008C341.921 309.891 334.479 321.35 324.114 329.743L297.167 351.565C286.802 359.958 274.046 364.855 260.727 365.553L226.1 367.367C212.781 368.065 199.583 364.529 188.397 357.265L159.317 338.38C148.131 331.116 139.533 320.497 134.753 308.046L122.327 275.674C117.547 263.223 116.832 249.578 120.284 236.695L129.258 203.202C132.71 190.319 140.152 178.86 150.517 170.467L177.464 148.645C187.829 140.252 200.585 135.355 213.904 134.657L248.531 132.843Z" fill="white" fill-opacity="0.32"/>
</g>
</g>
</g>
<path d="M183.783 81.2961C179.712 49.2319 152.259 24.3594 119.096 24.3594C93.4223 24.3594 71.1209 39.3667 60.939 63.0189C40.9292 68.9995 25.9404 87.8915 25.9404 108.199C25.9404 133.882 46.8352 154.777 72.5182 154.777H174.989C195.539 154.777 212.252 138.065 212.252 117.515C212.237 109.165 209.426 101.06 204.265 94.4946C199.105 87.9295 191.894 83.2827 183.783 81.2961Z" fill="black"/>
<mask id="mask2_2564_352" style="mask-type:alpha" maskUnits="userSpaceOnUse" x="25" y="24" width="188" height="131">
<path d="M183.783 81.2961C179.712 49.2319 152.259 24.3594 119.096 24.3594C93.4223 24.3594 71.1209 39.3667 60.939 63.0189C40.9292 68.9995 25.9404 87.8915 25.9404 108.199C25.9404 133.882 46.8352 154.777 72.5182 154.777H174.989C195.539 154.777 212.252 138.065 212.252 117.515C212.237 109.165 209.426 101.06 204.265 94.4946C199.105 87.9295 191.894 83.2827 183.783 81.2961Z" fill="black"/>
</mask>
<g mask="url(#mask2_2564_352)">
<g filter="url(#filter2_f_2564_352)">
<circle cx="124.63" cy="116.127" r="95.2575" transform="rotate(-45 124.63 116.127)" fill="url(#paint2_linear_2564_352)"/>
</g>
<mask id="mask3_2564_352" style="mask-type:alpha" maskUnits="userSpaceOnUse" x="23" y="14" width="205" height="204">
<circle cx="125.258" cy="116.125" r="101.791" fill="#D9D9D9"/>
</mask>
<g mask="url(#mask3_2564_352)">
<circle cx="125.258" cy="116.127" r="101.791" transform="rotate(-45 125.258 116.127)" fill="url(#paint3_linear_2564_352)"/>
<path d="M169.951 47.5852C183.27 46.8872 196.468 50.4236 207.654 57.6876L234.157 74.8993C245.343 82.1633 253.942 92.7819 258.721 105.233L270.046 134.736C274.826 147.188 275.541 160.833 272.089 173.715L263.91 204.241C260.458 217.123 253.016 228.583 242.651 236.976L218.092 256.864C207.727 265.257 194.971 270.154 181.652 270.852L150.093 272.506C136.774 273.204 123.576 269.667 112.391 262.403L85.8869 245.192C74.7013 237.928 66.1025 227.309 61.3229 214.858L49.9977 185.355C45.2181 172.903 44.503 159.258 47.9549 146.376L56.1341 115.85C59.5861 102.968 67.0278 91.5084 77.3928 83.115L101.952 63.2272C112.317 54.8338 125.073 49.9372 138.392 49.2392L169.951 47.5852Z" fill="white" fill-opacity="0.32"/>
<path d="M196.09 74.1204C209.409 73.4224 222.607 76.9588 233.792 84.2228L260.296 101.434C271.481 108.698 280.08 119.317 284.86 131.769L296.185 161.271C300.965 173.723 301.68 187.368 298.228 200.251L290.049 230.776C286.597 243.659 279.155 255.118 268.79 263.511L244.231 283.399C233.866 291.792 221.11 296.689 207.791 297.387L176.232 299.041C162.913 299.739 149.715 296.203 138.529 288.939L112.026 271.727C100.84 264.463 92.2412 253.844 87.4615 241.393L76.1364 211.89C71.3568 199.439 70.6417 185.794 74.0936 172.911L82.2728 142.386C85.7247 129.503 93.1665 118.044 103.531 109.65L128.091 89.7624C138.456 81.3689 151.212 76.4723 164.531 75.7743L196.09 74.1204Z" fill="white" fill-opacity="0.32"/>
<path d="M219.82 102.408C233.139 101.709 246.337 105.246 257.523 112.51L284.026 129.722C295.212 136.986 303.811 147.604 308.59 160.056L319.916 189.559C324.695 202.01 325.41 215.655 321.958 228.538L313.779 259.063C310.327 271.946 302.885 283.405 292.52 291.798L267.961 311.686C257.596 320.08 244.84 324.976 231.521 325.674L199.962 327.328C186.643 328.026 173.445 324.49 162.26 317.226L135.756 300.014C124.57 292.75 115.972 282.131 111.192 269.68L99.8669 240.177C95.0872 227.726 94.3721 214.081 97.8241 201.198L106.003 170.673C109.455 157.79 116.897 146.331 127.262 137.937L151.821 118.049C162.186 109.656 174.942 104.759 188.261 104.061L219.82 102.408Z" fill="white" fill-opacity="0.32"/>
<path d="M242.447 131.132C255.766 130.434 268.964 133.971 280.15 141.234L306.653 158.446C317.839 165.71 326.438 176.329 331.217 188.78L342.542 218.283C347.322 230.735 348.037 244.38 344.585 257.262L336.406 287.788C332.954 300.67 325.512 312.13 315.147 320.523L290.588 340.411C280.223 348.804 267.467 353.701 254.148 354.399L222.589 356.053C209.27 356.751 196.072 353.214 184.887 345.95L158.383 328.739C147.197 321.475 138.599 310.856 133.819 298.405L122.494 268.902C117.714 256.45 116.999 242.805 120.451 229.923L128.63 199.397C132.082 186.515 139.524 175.055 149.889 166.662L174.448 146.774C184.813 138.381 197.569 133.484 210.888 132.786L242.447 131.132Z" fill="white" fill-opacity="0.32"/>
</g>
</g>
<path d="M265.009 91.3796V84.0058C265.009 76.5149 265.594 70.3506 266.764 65.5128C268.013 60.675 270.08 56.8515 272.968 54.0425C275.933 51.2334 279.834 49.2827 284.672 48.1903C289.588 47.0978 295.674 46.5516 302.931 46.5516H330.67C340.58 46.5516 347.954 48.4243 352.792 52.1698C357.629 55.9152 360.048 61.7284 360.048 69.6093H351.621C351.543 67.3465 351.153 65.3177 350.451 63.523C349.827 61.6503 348.695 60.0897 347.056 58.8413C345.496 57.5928 343.35 56.6564 340.619 56.0322C337.966 55.33 334.65 54.9788 330.67 54.9788H301.76C295.986 54.9788 291.265 55.33 287.598 56.0322C283.931 56.7345 281.044 58.139 278.937 60.2458C276.83 62.2746 275.386 65.2007 274.606 69.0241C273.826 72.7695 273.436 77.7244 273.436 83.8887V91.3796C273.436 97.6999 273.748 102.772 274.372 106.595C275.074 110.341 276.362 113.228 278.234 115.257C280.185 117.285 282.877 118.651 286.311 119.353C289.744 119.977 294.192 120.289 299.654 120.289H330.67C334.728 120.289 338.044 120.055 340.619 119.587C343.272 119.041 345.34 117.988 346.822 116.427C348.383 114.866 349.475 112.682 350.1 109.873C350.724 106.985 351.036 103.201 351.036 98.5193H311.241V90.0921H360.165C360.165 97.895 359.814 104.293 359.112 109.287C358.41 114.281 357.005 118.222 354.898 121.109C352.792 123.918 349.788 125.869 345.886 126.961C342.063 128.053 336.991 128.6 330.67 128.6H300.59C293.567 128.6 287.754 128.092 283.15 127.078C278.547 126.064 274.879 124.191 272.148 121.46C269.495 118.729 267.622 114.944 266.53 110.107C265.516 105.269 265.009 99.0264 265.009 91.3796ZM396.046 70.5457H418.518C423.278 70.5457 427.258 71.1699 430.457 72.4184C433.734 73.6669 436.348 75.3445 438.299 77.4513C440.25 79.5581 441.615 82.016 442.395 84.8251C443.254 87.5561 443.683 90.4042 443.683 93.3693H435.256C435.256 88.2974 433.734 84.4349 430.691 81.7819C427.726 79.1289 423.395 77.8024 417.699 77.8024H396.865C391.013 77.8024 386.604 79.0119 383.639 81.4308C380.752 83.7717 379.309 87.7512 379.309 93.3693V128.6H370.998V70.7798H379.309V78.1536C380.557 75.7347 382.469 73.8619 385.044 72.5354C387.697 71.2089 391.364 70.5457 396.046 70.5457ZM466.459 93.2523H502.509C505.786 93.2523 508.283 93.7204 509.999 94.6568C511.716 95.5931 512.769 96.7246 513.16 98.0511V89.858C513.16 86.5027 512.067 83.6937 509.882 81.4308C507.697 79.0899 504.069 77.9195 498.997 77.9195H474.418C469.424 77.9195 465.757 78.6998 463.416 80.2604C461.153 81.821 460.021 83.7717 460.021 86.1126V87.5171H451.36V86.1126C451.36 81.3528 453.155 77.6074 456.744 74.8763C460.412 72.1453 465.562 70.7798 472.194 70.7798H499.817C503.718 70.7798 507.034 71.248 509.765 72.1843C512.574 73.1207 514.837 74.4862 516.554 76.2809C518.349 77.9975 519.636 80.1433 520.416 82.7183C521.275 85.2152 521.704 88.0243 521.704 91.1455V128.6H513.277V124.035C512.184 125.283 510.858 126.376 509.297 127.312C507.737 128.17 505.591 128.6 502.86 128.6H466.108C460.1 128.6 455.613 127.429 452.648 125.088C449.761 122.669 448.317 118.924 448.317 113.852V106.829C448.317 102.85 449.761 99.6117 452.648 97.1147C455.535 94.5398 460.139 93.2523 466.459 93.2523ZM500.285 100.392H469.385C466.732 100.392 464.586 100.587 462.948 100.977C461.309 101.289 460.021 101.796 459.085 102.499C458.149 103.201 457.525 104.098 457.212 105.191C456.9 106.205 456.744 107.415 456.744 108.819V113.033C456.744 114.359 456.939 115.53 457.329 116.544C457.72 117.558 458.383 118.456 459.319 119.236C460.256 119.938 461.543 120.485 463.182 120.875C464.82 121.265 466.888 121.46 469.385 121.46H500.285C504.732 121.46 507.971 120.641 509.999 119.002C512.028 117.285 513.043 114.593 513.043 110.926C513.043 107.259 511.95 104.606 509.765 102.967C507.58 101.25 504.42 100.392 500.285 100.392ZM538.063 70.7798L564.047 119.47H565.92L592.021 70.7798H601.384L570.602 128.6H559.6L528.7 70.7798H538.063ZM618.818 70.7798V128.6H610.391V70.7798H618.818ZM618.818 47.3709V55.7981H610.391V47.3709H618.818ZM656.937 121.46H672.972C675.391 121.46 677.381 121.187 678.942 120.641C680.58 120.016 681.829 119.275 682.687 118.417C683.623 117.558 684.248 116.661 684.56 115.725C684.95 114.71 685.145 113.852 685.145 113.15H694.274C694.274 114.788 693.923 116.544 693.221 118.417C692.519 120.211 691.348 121.889 689.71 123.45C688.071 124.932 685.925 126.181 683.272 127.195C680.697 128.131 677.498 128.6 673.675 128.6H656.937C650.539 128.6 645.467 126.883 641.722 123.45C638.054 119.938 636.221 114.476 636.221 107.063V79.207H628.964V70.7798H636.221V59.6606H644.648V70.7798H688.188V79.207H644.648V108.117C644.648 112.877 645.818 116.31 648.159 118.417C650.5 120.446 653.426 121.46 656.937 121.46ZM704.929 70.7798L730.913 119.47H732.903L758.887 70.7798H768.25L737.116 128.6C735.946 130.706 734.424 133.164 732.552 135.973C730.757 138.86 728.533 141.592 725.88 144.166C723.305 146.741 720.301 148.887 716.868 150.604C713.434 152.399 709.533 153.296 705.163 153.296V144.752C707.114 144.752 709.104 144.323 711.132 143.464C713.161 142.684 715.112 141.592 716.985 140.187C718.935 138.782 720.73 137.066 722.369 135.037C724.007 133.086 725.412 130.94 726.582 128.6L695.566 70.7798H704.929ZM832.148 91.3796V84.0058C832.148 76.5149 832.733 70.3506 833.904 65.5128C835.152 60.675 837.22 56.8515 840.107 54.0425C843.072 51.2334 846.974 49.2827 851.811 48.1903C856.727 47.0978 862.814 46.5516 870.07 46.5516H897.927C907.837 46.5516 915.21 48.4243 920.048 52.1698C924.886 55.9152 927.305 61.7284 927.305 69.6093H918.878C918.878 67.3465 918.527 65.3177 917.824 63.523C917.2 61.6503 916.069 60.0897 914.43 58.8413C912.791 57.5928 910.607 56.6564 907.876 56.0322C905.223 55.33 901.906 54.9788 897.927 54.9788H868.9C863.126 54.9788 858.405 55.33 854.737 56.0322C851.07 56.7345 848.183 58.139 846.076 60.2458C843.969 62.2746 842.526 65.2007 841.746 69.0241C840.965 72.7695 840.575 77.7244 840.575 83.8887V91.3796C840.575 97.6999 840.887 102.772 841.511 106.595C842.214 110.341 843.501 113.228 845.374 115.257C847.325 117.285 850.017 118.651 853.45 119.353C856.883 119.977 861.331 120.289 866.793 120.289H897.927C901.828 120.289 905.105 120.016 907.759 119.47C910.49 118.924 912.674 118.066 914.313 116.895C915.952 115.647 917.122 114.125 917.824 112.33C918.605 110.458 918.995 108.234 918.995 105.659H927.422C927.422 109.482 926.915 112.838 925.9 115.725C924.886 118.534 923.208 120.914 920.867 122.864C918.605 124.737 915.6 126.181 911.855 127.195C908.188 128.131 903.662 128.6 898.278 128.6H867.729C860.707 128.6 854.894 128.092 850.29 127.078C845.686 126.064 842.019 124.191 839.288 121.46C836.635 118.729 834.762 114.944 833.67 110.107C832.655 105.269 832.148 99.0264 832.148 91.3796ZM951.453 47.3709V128.6H943.026V47.3709H951.453ZM990.941 70.5457H1014.23C1018.99 70.5457 1022.97 71.1699 1026.17 72.4184C1029.45 73.6669 1032.06 75.3445 1034.01 77.4513C1035.96 79.5581 1037.33 82.016 1038.11 84.8251C1038.97 87.5561 1039.4 90.4042 1039.4 93.3693V106.01C1039.4 109.053 1038.97 111.94 1038.11 114.671C1037.25 117.402 1035.81 119.821 1033.78 121.928C1031.83 124.035 1029.25 125.713 1026.05 126.961C1022.86 128.131 1018.91 128.717 1014.23 128.717H990.941C982.358 128.717 975.999 126.805 971.863 122.981C967.727 119.08 965.66 113.423 965.66 106.01V93.3693C965.66 90.0921 966.128 87.0489 967.064 84.2399C968.001 81.4308 969.444 79.0119 971.395 76.9831C973.424 74.9544 976.038 73.3938 979.237 72.3014C982.436 71.1309 986.337 70.5457 990.941 70.5457ZM974.204 106.01C974.204 116.388 980.056 121.577 991.761 121.577H1013.41C1018.8 121.577 1023.05 120.407 1026.17 118.066C1029.37 115.647 1030.97 111.628 1030.97 106.01V93.2523C1030.97 88.1804 1029.45 84.3569 1026.41 81.7819C1023.44 79.1289 1019.11 77.8024 1013.41 77.8024H991.761C985.908 77.8024 981.5 79.0119 978.535 81.4308C975.647 83.7717 974.204 87.7512 974.204 93.3693V106.01ZM1075.44 128.6C1066.54 128.6 1060.1 126.61 1056.12 122.63C1052.15 118.573 1050.16 112.994 1050.16 105.893V70.7798H1058.7V106.595C1058.7 111.589 1060.18 115.335 1063.15 117.832C1066.11 120.25 1070.21 121.46 1075.44 121.46H1098.14C1100.33 121.46 1102.44 121.187 1104.46 120.641C1106.49 120.016 1108.29 119.119 1109.85 117.949C1111.41 116.7 1112.66 115.179 1113.59 113.384C1114.53 111.589 1115 109.443 1115 106.946V70.7798H1123.43V128.6H1115.23V121.694C1114.69 122.318 1113.98 123.06 1113.13 123.918C1112.27 124.698 1111.17 125.439 1109.85 126.142C1108.52 126.844 1106.88 127.429 1104.93 127.897C1103.06 128.366 1100.8 128.6 1098.14 128.6H1075.44ZM1134.38 106.01V93.3693C1134.38 90.0921 1134.85 87.0489 1135.78 84.2399C1136.8 81.4308 1138.32 79.0119 1140.35 76.9831C1142.38 74.9544 1144.91 73.3938 1147.96 72.3014C1151.08 71.1309 1154.74 70.5457 1158.96 70.5457H1181.66C1184.71 70.5457 1187.2 70.7408 1189.16 71.1309C1191.11 71.443 1192.67 71.9112 1193.84 72.5354C1195.01 73.1597 1195.91 73.8619 1196.53 74.6422C1197.23 75.4225 1197.86 76.2418 1198.4 77.1002V47.3709H1206.95V128.6H1198.4V122.981C1197.78 123.762 1197.08 124.503 1196.3 125.205C1195.51 125.908 1194.5 126.532 1193.25 127.078C1192.08 127.546 1190.56 127.936 1188.69 128.248C1186.81 128.561 1184.47 128.717 1181.66 128.717H1158.96C1150.92 128.717 1144.8 126.844 1140.58 123.099C1136.45 119.275 1134.38 113.579 1134.38 106.01ZM1180.61 77.8024H1161.88C1155.1 77.8024 1150.22 79.1679 1147.25 81.899C1144.29 84.552 1142.81 88.3754 1142.81 93.3693V106.01C1142.81 111.394 1144.37 115.335 1147.49 117.832C1150.61 120.328 1155.41 121.577 1161.88 121.577H1180.61C1183.73 121.577 1186.42 121.187 1188.69 120.407C1190.95 119.626 1192.82 118.534 1194.31 117.129C1195.79 115.725 1196.88 114.086 1197.58 112.213C1198.36 110.263 1198.75 108.195 1198.75 106.01V93.3693C1198.75 88.9216 1197.27 85.2152 1194.31 82.2501C1191.42 79.285 1186.85 77.8024 1180.61 77.8024Z" fill="white"/>
<path d="M1261.67 128.6V71.8716H1285.58C1291.63 71.8716 1296.95 73.0602 1301.54 75.4374C1306.19 77.8145 1309.78 81.1372 1312.32 85.4053C1314.91 89.6734 1316.21 94.6168 1316.21 100.236C1316.21 105.854 1314.91 110.798 1312.32 115.066C1309.78 119.334 1306.19 122.657 1301.54 125.034C1296.95 127.411 1291.63 128.6 1285.58 128.6H1261.67ZM1269.77 121.549H1285.09C1289.79 121.549 1293.84 120.658 1297.25 118.875C1300.7 117.092 1303.38 114.607 1305.27 111.419C1307.16 108.178 1308.11 104.45 1308.11 100.236C1308.11 95.9675 1307.16 92.2397 1305.27 89.0521C1303.38 85.8645 1300.7 83.3793 1297.25 81.5964C1293.84 79.8135 1289.79 78.9221 1285.09 78.9221H1269.77V121.549ZM1346.61 129.086C1342.02 129.086 1337.97 128.14 1334.46 126.249C1331 124.359 1328.3 121.765 1326.35 118.47C1324.46 115.174 1323.52 111.392 1323.52 107.124C1323.52 102.856 1324.44 99.074 1326.27 95.7784C1328.16 92.4828 1330.73 89.9165 1333.97 88.0796C1337.27 86.1887 1340.97 85.2432 1345.07 85.2432C1349.23 85.2432 1352.91 86.1617 1356.1 87.9986C1359.28 89.8355 1361.77 92.4288 1363.55 95.7784C1365.39 99.074 1366.31 102.937 1366.31 107.367C1366.31 107.691 1366.28 108.069 1366.23 108.502C1366.23 108.934 1366.2 109.339 1366.14 109.717H1329.6V104.126H1362.09L1358.93 106.07C1358.99 103.315 1358.42 100.857 1357.23 98.6958C1356.04 96.5348 1354.39 94.86 1352.29 93.6714C1350.23 92.4288 1347.83 91.8074 1345.07 91.8074C1342.37 91.8074 1339.97 92.4288 1337.86 93.6714C1335.75 94.86 1334.11 96.5618 1332.92 98.7769C1331.73 100.938 1331.13 103.423 1331.13 106.233V107.529C1331.13 110.393 1331.78 112.959 1333.08 115.228C1334.43 117.443 1336.29 119.172 1338.67 120.415C1341.05 121.657 1343.78 122.278 1346.86 122.278C1349.4 122.278 1351.69 121.846 1353.75 120.982C1355.85 120.117 1357.69 118.821 1359.26 117.092L1363.55 122.116C1361.61 124.386 1359.17 126.114 1356.26 127.303C1353.39 128.492 1350.18 129.086 1346.61 129.086ZM1387.58 128.6L1368.78 85.6484H1376.89L1393.58 124.548H1389.69L1406.71 85.6484H1414.33L1395.52 128.6H1387.58ZM1439.52 129.086C1434.93 129.086 1430.88 128.14 1427.37 126.249C1423.91 124.359 1421.21 121.765 1419.26 118.47C1417.37 115.174 1416.43 111.392 1416.43 107.124C1416.43 102.856 1417.35 99.074 1419.18 95.7784C1421.07 92.4828 1423.64 89.9165 1426.88 88.0796C1430.18 86.1887 1433.88 85.2432 1437.98 85.2432C1442.14 85.2432 1445.82 86.1617 1449.01 87.9986C1452.19 89.8355 1454.68 92.4288 1456.46 95.7784C1458.3 99.074 1459.22 102.937 1459.22 107.367C1459.22 107.691 1459.19 108.069 1459.14 108.502C1459.14 108.934 1459.11 109.339 1459.06 109.717H1422.51V104.126H1455L1451.84 106.07C1451.9 103.315 1451.33 100.857 1450.14 98.6958C1448.95 96.5348 1447.3 94.86 1445.2 93.6714C1443.14 92.4288 1440.74 91.8074 1437.98 91.8074C1435.28 91.8074 1432.88 92.4288 1430.77 93.6714C1428.67 94.86 1427.02 96.5618 1425.83 98.7769C1424.64 100.938 1424.05 103.423 1424.05 106.233V107.529C1424.05 110.393 1424.69 112.959 1425.99 115.228C1427.34 117.443 1429.21 119.172 1431.58 120.415C1433.96 121.657 1436.69 122.278 1439.77 122.278C1442.31 122.278 1444.6 121.846 1446.66 120.982C1448.76 120.117 1450.6 118.821 1452.17 117.092L1456.46 122.116C1454.52 124.386 1452.09 126.114 1449.17 127.303C1446.3 128.492 1443.09 129.086 1439.52 129.086ZM1470.02 128.6V68.4679H1477.8V128.6H1470.02ZM1511.05 129.086C1506.73 129.086 1502.89 128.14 1499.54 126.249C1496.19 124.359 1493.55 121.765 1491.6 118.47C1489.66 115.12 1488.68 111.338 1488.68 107.124C1488.68 102.856 1489.66 99.074 1491.6 95.7784C1493.55 92.4828 1496.19 89.9165 1499.54 88.0796C1502.89 86.1887 1506.73 85.2432 1511.05 85.2432C1515.32 85.2432 1519.13 86.1887 1522.48 88.0796C1525.88 89.9165 1528.53 92.4828 1530.42 95.7784C1532.36 99.02 1533.34 102.802 1533.34 107.124C1533.34 111.392 1532.36 115.174 1530.42 118.47C1528.53 121.765 1525.88 124.359 1522.48 126.249C1519.13 128.14 1515.32 129.086 1511.05 129.086ZM1511.05 122.278C1513.81 122.278 1516.26 121.657 1518.43 120.415C1520.64 119.172 1522.37 117.416 1523.61 115.147C1524.85 112.824 1525.48 110.15 1525.48 107.124C1525.48 104.044 1524.85 101.397 1523.61 99.1821C1522.37 96.913 1520.64 95.1571 1518.43 93.9145C1516.26 92.6719 1513.81 92.0506 1511.05 92.0506C1508.3 92.0506 1505.84 92.6719 1503.68 93.9145C1501.51 95.1571 1499.79 96.913 1498.49 99.1821C1497.19 101.397 1496.54 104.044 1496.54 107.124C1496.54 110.15 1497.19 112.824 1498.49 115.147C1499.79 117.416 1501.51 119.172 1503.68 120.415C1505.84 121.657 1508.3 122.278 1511.05 122.278ZM1566.87 129.086C1563.3 129.086 1560.03 128.275 1557.06 126.655C1554.14 124.98 1551.79 122.522 1550.01 119.28C1548.28 116.038 1547.42 111.986 1547.42 107.124C1547.42 102.262 1548.26 98.2096 1549.93 94.968C1551.66 91.7264 1553.98 89.2952 1556.9 87.6744C1559.87 86.0536 1563.19 85.2432 1566.87 85.2432C1571.08 85.2432 1574.81 86.1617 1578.05 87.9986C1581.29 89.8355 1583.86 92.4017 1585.75 95.6974C1587.64 98.939 1588.59 102.748 1588.59 107.124C1588.59 111.5 1587.64 115.336 1585.75 118.632C1583.86 121.927 1581.29 124.494 1578.05 126.33C1574.81 128.167 1571.08 129.086 1566.87 129.086ZM1544.1 144.321V85.6484H1551.55V97.2371L1551.07 107.205L1551.88 117.173V144.321H1544.1ZM1566.22 122.278C1568.98 122.278 1571.43 121.657 1573.59 120.415C1575.81 119.172 1577.54 117.416 1578.78 115.147C1580.08 112.824 1580.73 110.15 1580.73 107.124C1580.73 104.044 1580.08 101.397 1578.78 99.1821C1577.54 96.913 1575.81 95.1571 1573.59 93.9145C1571.43 92.6719 1568.98 92.0506 1566.22 92.0506C1563.52 92.0506 1561.06 92.6719 1558.85 93.9145C1556.68 95.1571 1554.96 96.913 1553.66 99.1821C1552.42 101.397 1551.79 104.044 1551.79 107.124C1551.79 110.15 1552.42 112.824 1553.66 115.147C1554.96 117.416 1556.68 119.172 1558.85 120.415C1561.06 121.657 1563.52 122.278 1566.22 122.278ZM1618.46 129.086C1613.87 129.086 1609.82 128.14 1606.31 126.249C1602.85 124.359 1600.15 121.765 1598.2 118.47C1596.31 115.174 1595.37 111.392 1595.37 107.124C1595.37 102.856 1596.28 99.074 1598.12 95.7784C1600.01 92.4828 1602.58 89.9165 1605.82 88.0796C1609.11 86.1887 1612.82 85.2432 1616.92 85.2432C1621.08 85.2432 1624.76 86.1617 1627.94 87.9986C1631.13 89.8355 1633.62 92.4288 1635.4 95.7784C1637.24 99.074 1638.15 102.937 1638.15 107.367C1638.15 107.691 1638.13 108.069 1638.07 108.502C1638.07 108.934 1638.05 109.339 1637.99 109.717H1601.44V104.126H1633.94L1630.78 106.07C1630.83 103.315 1630.27 100.857 1629.08 98.6958C1627.89 96.5348 1626.24 94.86 1624.13 93.6714C1622.08 92.4288 1619.68 91.8074 1616.92 91.8074C1614.22 91.8074 1611.82 92.4288 1609.71 93.6714C1607.6 94.86 1605.95 96.5618 1604.77 98.7769C1603.58 100.938 1602.98 103.423 1602.98 106.233V107.529C1602.98 110.393 1603.63 112.959 1604.93 115.228C1606.28 117.443 1608.14 119.172 1610.52 120.415C1612.9 121.657 1615.63 122.278 1618.7 122.278C1621.24 122.278 1623.54 121.846 1625.59 120.982C1627.7 120.117 1629.54 118.821 1631.1 117.092L1635.4 122.116C1633.45 124.386 1631.02 126.114 1628.11 127.303C1625.24 128.492 1622.03 129.086 1618.46 129.086ZM1648.96 128.6V85.6484H1656.41V97.3182L1655.68 94.4007C1656.87 91.4293 1658.87 89.1601 1661.68 87.5934C1664.49 86.0266 1667.95 85.2432 1672.05 85.2432V92.7799C1671.73 92.7259 1671.41 92.6989 1671.08 92.6989C1670.81 92.6989 1670.54 92.6989 1670.27 92.6989C1666.11 92.6989 1662.82 93.9415 1660.38 96.4267C1657.95 98.912 1656.74 102.505 1656.74 107.205V128.6H1648.96ZM1745.78 71.8716H1753.88V128.6H1745.78V71.8716ZM1713.2 128.6H1705.09V71.8716H1713.2V128.6ZM1746.51 103.315H1712.39V96.2646H1746.51V103.315ZM1787.8 129.086C1784.12 129.086 1780.88 128.411 1778.07 127.06C1775.32 125.709 1773.16 123.656 1771.59 120.901C1770.08 118.091 1769.32 114.58 1769.32 110.366V85.6484H1777.1V109.474C1777.1 113.688 1778.1 116.849 1780.1 118.956C1782.15 121.063 1785.02 122.116 1788.69 122.116C1791.39 122.116 1793.74 121.576 1795.74 120.496C1797.74 119.361 1799.28 117.74 1800.36 115.633C1801.44 113.472 1801.98 110.879 1801.98 107.853V85.6484H1809.76V128.6H1802.38V117.011L1803.6 120.09C1802.2 122.954 1800.09 125.169 1797.28 126.736C1794.47 128.302 1791.31 129.086 1787.8 129.086ZM1847.34 129.086C1843.67 129.086 1840.35 128.275 1837.37 126.655C1834.46 124.98 1832.13 122.522 1830.41 119.28C1828.73 116.038 1827.89 111.986 1827.89 107.124C1827.89 102.262 1828.76 98.2096 1830.49 94.968C1832.27 91.7264 1834.62 89.2952 1837.54 87.6744C1840.51 86.0536 1843.78 85.2432 1847.34 85.2432C1851.56 85.2432 1855.28 86.1617 1858.53 87.9986C1861.77 89.8355 1864.33 92.4017 1866.22 95.6974C1868.12 98.939 1869.06 102.748 1869.06 107.124C1869.06 111.5 1868.12 115.336 1866.22 118.632C1864.33 121.927 1861.77 124.494 1858.53 126.33C1855.28 128.167 1851.56 129.086 1847.34 129.086ZM1824.57 128.6V68.4679H1832.35V97.075L1831.54 107.043L1832.03 117.011V128.6H1824.57ZM1846.69 122.278C1849.45 122.278 1851.91 121.657 1854.07 120.415C1856.28 119.172 1858.01 117.416 1859.26 115.147C1860.55 112.824 1861.2 110.15 1861.2 107.124C1861.2 104.044 1860.55 101.397 1859.26 99.1821C1858.01 96.913 1856.28 95.1571 1854.07 93.9145C1851.91 92.6719 1849.45 92.0506 1846.69 92.0506C1843.99 92.0506 1841.53 92.6719 1839.32 93.9145C1837.16 95.1571 1835.43 96.913 1834.13 99.1821C1832.89 101.397 1832.27 104.044 1832.27 107.124C1832.27 110.15 1832.89 112.824 1834.13 115.147C1835.43 117.416 1837.16 119.172 1839.32 120.415C1841.53 121.657 1843.99 122.278 1846.69 122.278Z" fill="white" fill-opacity="0.8"/>
<defs>
<filter id="filter0_f_2564_352" x="0.610806" y="0.210415" width="236.97" height="178.712" filterUnits="userSpaceOnUse" color-interpolation-filters="sRGB">
<feFlood flood-opacity="0" result="BackgroundImageFix"/>
<feBlend mode="normal" in="SourceGraphic" in2="BackgroundImageFix" result="shape"/>
<feGaussianBlur stdDeviation="10.6946" result="effect1_foregroundBlur_2564_352"/>
</filter>
<filter id="filter1_f_2564_352" x="-97.8514" y="-105.469" width="445.432" height="445.433" filterUnits="userSpaceOnUse" color-interpolation-filters="sRGB">
<feFlood flood-opacity="0" result="BackgroundImageFix"/>
<feBlend mode="normal" in="SourceGraphic" in2="BackgroundImageFix" result="shape"/>
<feGaussianBlur stdDeviation="61.7148" result="effect1_foregroundBlur_2564_352"/>
</filter>
<filter id="filter2_f_2564_352" x="-94.0565" y="-102.56" width="437.374" height="437.375" filterUnits="userSpaceOnUse" color-interpolation-filters="sRGB">
<feFlood flood-opacity="0" result="BackgroundImageFix"/>
<feBlend mode="normal" in="SourceGraphic" in2="BackgroundImageFix" result="shape"/>
<feGaussianBlur stdDeviation="61.7148" result="effect1_foregroundBlur_2564_352"/>
</filter>
<linearGradient id="paint0_linear_2564_352" x1="224.151" y1="17.9615" x2="32.8176" y2="17.9615" gradientUnits="userSpaceOnUse">
<stop stop-color="#5F37FF"/>
<stop offset="0.510417" stop-color="#1584FF"/>
<stop offset="1" stop-color="#3EF3FF"/>
</linearGradient>
<linearGradient id="paint1_linear_2564_352" x1="231.615" y1="11.1518" x2="27.1583" y2="11.1518" gradientUnits="userSpaceOnUse">
<stop stop-color="#5F37FF"/>
<stop offset="0.510417" stop-color="#1584FF"/>
<stop offset="1" stop-color="#3EF3FF"/>
</linearGradient>
<linearGradient id="paint2_linear_2564_352" x1="219.888" y1="20.8694" x2="36.3188" y2="20.8694" gradientUnits="userSpaceOnUse">
<stop stop-color="#5F37FF"/>
<stop offset="0.510417" stop-color="#1584FF"/>
<stop offset="1" stop-color="#3EF3FF"/>
</linearGradient>
<linearGradient id="paint3_linear_2564_352" x1="227.049" y1="14.336" x2="30.8892" y2="14.336" gradientUnits="userSpaceOnUse">
<stop stop-color="#5F37FF"/>
<stop offset="0.510417" stop-color="#1584FF"/>
<stop offset="1" stop-color="#3EF3FF"/>
</linearGradient>
</defs>
</svg>
