<svg width="427" height="118" viewBox="0 0 427 118" fill="none" xmlns="http://www.w3.org/2000/svg">
<mask id="mask0_3163_847" style="mask-type:alpha" maskUnits="userSpaceOnUse" x="5" y="5" width="108" height="108">
<rect y="59" width="83.4386" height="83.4386" rx="12.8367" transform="rotate(-45 0 59)" fill="#3EFFA5"/>
</mask>
<g mask="url(#mask0_3163_847)">
<rect y="59" width="83.4386" height="83.4386" rx="12.8367" transform="rotate(-45 0 59)" fill="#3AFFA3"/>
<rect x="75.8086" y="15.1855" width="62.8999" height="62.8999" rx="10.2694" transform="rotate(45 75.8086 15.1855)" fill="#9DFFD1"/>
<rect x="91.8535" y="32.2305" width="38.5869" height="36.0048" rx="7.70202" transform="rotate(45 91.8535 32.2305)" fill="#DDFFEF"/>
</g>
<path d="M140.349 90V25.698H155.046L172.132 85.1314H173.327L190.413 25.698H205.11V90H197.669V30.7503H196.383L179.389 90H166.07L149.076 30.7503H147.789V90H140.349ZM233.884 91.286C230.761 91.286 227.913 90.7349 225.341 89.6326C222.769 88.5302 220.748 86.938 219.278 84.8558C217.808 82.7737 217.073 80.2322 217.073 77.2315C217.073 74.1695 217.808 71.6586 219.278 69.6989C220.748 67.678 222.769 66.1776 225.341 65.1978C227.913 64.1567 230.791 63.6362 233.976 63.6362H249.133V60.3292C249.133 57.1447 248.183 54.6339 246.285 52.7967C244.448 50.9595 241.692 50.0409 238.018 50.0409C234.404 50.0409 231.587 50.9289 229.566 52.7048C227.545 54.4196 226.168 56.7467 225.433 59.6862L218.635 57.4816C219.37 54.9707 220.533 52.7048 222.126 50.6839C223.718 48.6018 225.831 46.9483 228.464 45.7235C231.159 44.4374 234.374 43.7944 238.109 43.7944C243.866 43.7944 248.336 45.2948 251.521 48.2956C254.705 51.2351 256.298 55.3994 256.298 60.7885V81.0896C256.298 82.9268 257.155 83.8454 258.87 83.8454H263.003V90H256.665C254.644 90 253.021 89.4488 251.797 88.3465C250.572 87.183 249.959 85.652 249.959 83.7535V83.2942H248.857C248.183 84.4578 247.265 85.6826 246.101 86.9686C244.999 88.1934 243.468 89.2039 241.508 90C239.549 90.8574 237.007 91.286 233.884 91.286ZM234.711 85.0396C238.997 85.0396 242.457 83.7841 245.091 81.2733C247.785 78.7012 249.133 75.1187 249.133 70.5257V69.5152H234.251C231.373 69.5152 228.985 70.1582 227.086 71.4443C225.249 72.6691 224.33 74.5369 224.33 77.0477C224.33 79.5586 225.28 81.5183 227.178 82.9268C229.138 84.3353 231.649 85.0396 234.711 85.0396ZM289.477 90C286.905 90 284.915 89.2957 283.506 87.8872C282.159 86.4787 281.485 84.5496 281.485 82.1V51.4188H267.982V45.0805H281.485V29.0968H288.742V45.0805H300.5V51.4188H288.742V80.9977C288.742 82.8349 289.63 83.7535 291.406 83.7535H301.419V90H289.477ZM319.056 90C316.484 90 314.494 89.2957 313.085 87.8872C311.677 86.4787 310.972 84.5496 310.972 82.1V51.4188H300.5V45.0805H310.972V29.0968H318.229V45.0805H333.019V51.4188H318.229V80.9977C318.229 82.8349 319.148 83.7535 320.985 83.7535H330.998V90H319.056ZM365.374 91.286C360.842 91.286 356.862 90.3368 353.432 88.4384C350.003 86.4787 347.339 83.7535 345.441 80.2628C343.542 76.7722 342.593 72.7303 342.593 68.1373V67.035C342.593 62.3808 343.542 58.3083 345.441 54.8176C347.339 51.3269 349.972 48.6324 353.341 46.7339C356.709 44.7743 360.567 43.7944 364.915 43.7944C369.14 43.7944 372.876 44.713 376.122 46.5502C379.368 48.3262 381.909 50.8983 383.746 54.2665C385.583 57.6347 386.502 61.5846 386.502 66.1164V69.4234H349.85C350.034 74.2613 351.595 78.0582 354.535 80.814C357.474 83.5086 361.149 84.8558 365.558 84.8558C369.416 84.8558 372.386 83.9679 374.468 82.1919C376.551 80.4159 378.143 78.3032 379.245 75.8536L385.492 78.8849C384.573 80.7834 383.287 82.6818 381.633 84.5803C380.041 86.4787 377.928 88.0709 375.295 89.357C372.723 90.643 369.416 91.286 365.374 91.286ZM349.942 63.4525H379.153C378.908 59.2881 377.469 56.0424 374.836 53.7153C372.264 51.3882 368.957 50.2246 364.915 50.2246C360.812 50.2246 357.444 51.3882 354.81 53.7153C352.177 56.0424 350.554 59.2881 349.942 63.4525ZM399.16 90V45.0805H406.233V50.5921H407.519C408.315 48.6324 409.54 47.1932 411.194 46.2746C412.847 45.356 415.021 44.8967 417.716 44.8967H423.044V51.5107H417.256C414.011 51.5107 411.377 52.4293 409.357 54.2665C407.397 56.0424 406.417 58.8288 406.417 62.6257V90H399.16Z" fill="white"/>
</svg>
