<svg width="1873" height="180" viewBox="0 0 1873 180" fill="none" xmlns="http://www.w3.org/2000/svg">
<g opacity="0.6" filter="url(#filter0_f_2564_379)">
<path d="M186.519 81.3449C182.276 47.9246 153.662 22 119.096 22C92.3361 22 69.0914 37.6421 58.4789 62.2947C37.6227 68.5283 22 88.2193 22 109.386C22 136.155 43.7786 157.934 70.5478 157.934H177.353C198.772 157.934 216.191 140.515 216.191 119.096C216.176 110.392 213.246 101.945 207.867 95.1017C202.489 88.2589 194.973 83.4155 186.519 81.3449Z" fill="black"/>
<mask id="mask0_2564_379" style="mask-type:alpha" maskUnits="userSpaceOnUse" x="22" y="22" width="195" height="136">
<path d="M186.519 81.3449C182.276 47.9246 153.662 22 119.096 22C92.3361 22 69.0914 37.6421 58.4789 62.2947C37.6227 68.5283 22 88.2193 22 109.386C22 136.155 43.7786 157.934 70.5478 157.934H177.353C198.772 157.934 216.191 140.515 216.191 119.096C216.176 110.392 213.246 101.945 207.867 95.1017C202.489 88.2589 194.973 83.4155 186.519 81.3449Z" fill="black"/>
</mask>
<g mask="url(#mask0_2564_379)">
<g filter="url(#filter1_f_2564_379)">
<circle cx="124.864" cy="117.648" r="99.2865" transform="rotate(-45 124.864 117.648)" fill="url(#paint0_linear_2564_379)"/>
</g>
<mask id="mask1_2564_379" style="mask-type:alpha" maskUnits="userSpaceOnUse" x="19" y="11" width="213" height="213">
<circle cx="125.519" cy="117.651" r="106.096" fill="#D9D9D9"/>
</mask>
<g mask="url(#mask1_2564_379)">
<circle cx="125.518" cy="117.648" r="106.096" transform="rotate(-45 125.518 117.648)" fill="url(#paint1_linear_2564_379)"/>
<path d="M172.969 46.163C186.288 45.4649 199.486 49.0013 210.671 56.2653L239.752 75.1504C250.937 82.4144 259.536 93.0331 264.316 105.484L276.742 137.856C281.522 150.307 282.237 163.952 278.785 176.835L269.811 210.328C266.359 223.211 258.917 234.67 248.552 243.064L221.605 264.885C211.24 273.278 198.484 278.175 185.165 278.873L150.538 280.688C137.219 281.386 124.021 277.849 112.835 270.585L83.7545 251.7C72.569 244.436 63.9701 233.818 59.1905 221.366L46.7643 188.995C41.9846 176.543 41.2695 162.898 44.7215 150.016L53.6959 116.523C57.1478 103.64 64.5896 92.1805 74.9546 83.7871L101.902 61.9657C112.267 53.5723 125.023 48.6757 138.342 47.9777L172.969 46.163Z" fill="white" fill-opacity="0.32"/>
<path d="M200.214 73.8192C213.533 73.1212 226.731 76.6576 237.917 83.9216L266.997 102.807C278.183 110.071 286.781 120.689 291.561 133.141L303.987 165.512C308.767 177.964 309.482 191.608 306.03 204.491L297.056 237.984C293.604 250.867 286.162 262.326 275.797 270.72L248.85 292.541C238.485 300.935 225.729 305.831 212.41 306.529L177.783 308.344C164.464 309.042 151.266 305.506 140.08 298.242L111 279.356C99.8141 272.092 91.2153 261.474 86.4356 249.022L74.0094 216.651C69.2297 204.2 68.5146 190.555 71.9666 177.672L80.941 144.179C84.3929 131.296 91.8347 119.837 102.2 111.443L129.147 89.622C139.512 81.2286 152.268 76.3319 165.587 75.6339L200.214 73.8192Z" fill="white" fill-opacity="0.32"/>
<path d="M224.947 103.306C238.266 102.608 251.464 106.144 262.65 113.408L291.73 132.293C302.916 139.557 311.515 150.176 316.294 162.627L328.721 194.998C333.5 207.45 334.215 221.095 330.763 233.978L321.789 267.471C318.337 280.353 310.895 291.813 300.53 300.206L273.583 322.027C263.218 330.421 250.462 335.318 237.143 336.016L202.516 337.83C189.197 338.528 175.999 334.992 164.814 327.728L135.733 308.843C124.547 301.579 115.949 290.96 111.169 278.509L98.7428 246.137C93.9631 233.686 93.248 220.041 96.7 207.158L105.674 173.665C109.126 160.782 116.568 149.323 126.933 140.93L153.88 119.108C164.245 110.715 177.001 105.818 190.32 105.12L224.947 103.306Z" fill="white" fill-opacity="0.32"/>
<path d="M248.531 133.243C261.85 132.545 275.048 136.081 286.234 143.345L315.314 162.23C326.5 169.494 335.099 180.113 339.878 192.565L352.305 224.936C357.084 237.387 357.799 251.032 354.347 263.915L345.373 297.408C341.921 310.291 334.479 321.75 324.114 330.144L297.167 351.965C286.802 360.358 274.046 365.255 260.727 365.953L226.1 367.768C212.781 368.466 199.583 364.929 188.397 357.665L159.317 338.78C148.131 331.516 139.533 320.898 134.753 308.446L122.327 276.075C117.547 263.623 116.832 249.978 120.284 237.096L129.258 203.603C132.71 190.72 140.152 179.261 150.517 170.867L177.464 149.046C187.829 140.652 200.585 135.756 213.904 135.058L248.531 133.243Z" fill="white" fill-opacity="0.32"/>
</g>
</g>
</g>
<path d="M183.783 81.6965C179.712 49.6323 152.259 24.7598 119.096 24.7598C93.4223 24.7598 71.1209 39.7671 60.939 63.4193C40.9292 69.3999 25.9404 88.2919 25.9404 108.6C25.9404 134.283 46.8352 155.178 72.5182 155.178H174.989C195.539 155.178 212.252 138.465 212.252 117.915C212.237 109.565 209.426 101.46 204.265 94.895C199.105 88.3299 191.894 83.683 183.783 81.6965Z" fill="black"/>
<mask id="mask2_2564_379" style="mask-type:alpha" maskUnits="userSpaceOnUse" x="25" y="24" width="188" height="132">
<path d="M183.783 81.6965C179.712 49.6323 152.259 24.7598 119.096 24.7598C93.4223 24.7598 71.1209 39.7671 60.939 63.4193C40.9292 69.3999 25.9404 88.2919 25.9404 108.6C25.9404 134.283 46.8352 155.178 72.5182 155.178H174.989C195.539 155.178 212.252 138.465 212.252 117.915C212.237 109.565 209.426 101.46 204.265 94.895C199.105 88.3299 191.894 83.683 183.783 81.6965Z" fill="black"/>
</mask>
<g mask="url(#mask2_2564_379)">
<g filter="url(#filter2_f_2564_379)">
<circle cx="124.63" cy="116.527" r="95.2575" transform="rotate(-45 124.63 116.527)" fill="url(#paint2_linear_2564_379)"/>
</g>
<mask id="mask3_2564_379" style="mask-type:alpha" maskUnits="userSpaceOnUse" x="23" y="14" width="205" height="205">
<circle cx="125.258" cy="116.525" r="101.791" fill="#D9D9D9"/>
</mask>
<g mask="url(#mask3_2564_379)">
<circle cx="125.258" cy="116.527" r="101.791" transform="rotate(-45 125.258 116.527)" fill="url(#paint3_linear_2564_379)"/>
<path d="M169.951 47.9856C183.27 47.2876 196.468 50.824 207.654 58.088L234.157 75.2997C245.343 82.5637 253.942 93.1823 258.721 105.634L270.046 135.137C274.826 147.588 275.541 161.233 272.089 174.116L263.91 204.641C260.458 217.524 253.016 228.983 242.651 237.377L218.092 257.264C207.727 265.658 194.971 270.554 181.652 271.252L150.093 272.906C136.774 273.604 123.576 270.068 112.391 262.804L85.8869 245.592C74.7013 238.328 66.1025 227.71 61.3229 215.258L49.9977 185.755C45.2181 173.304 44.503 159.659 47.9549 146.776L56.1341 116.251C59.5861 103.368 67.0278 91.9088 77.3928 83.5154L101.952 63.6276C112.317 55.2342 125.073 50.3376 138.392 49.6395L169.951 47.9856Z" fill="white" fill-opacity="0.32"/>
<path d="M196.09 74.5208C209.409 73.8228 222.607 77.3592 233.792 84.6232L260.296 101.835C271.481 109.099 280.08 119.717 284.86 132.169L296.185 161.672C300.965 174.123 301.68 187.768 298.228 200.651L290.049 231.176C286.597 244.059 279.155 255.518 268.79 263.912L244.231 283.799C233.866 292.193 221.11 297.089 207.791 297.788L176.232 299.441C162.913 300.139 149.715 296.603 138.529 289.339L112.026 272.127C100.84 264.863 92.2412 254.245 87.4615 241.793L76.1364 212.29C71.3568 199.839 70.6417 186.194 74.0936 173.311L82.2728 142.786C85.7247 129.903 93.1665 118.444 103.531 110.051L128.091 90.1627C138.456 81.7693 151.212 76.8727 164.531 76.1747L196.09 74.5208Z" fill="white" fill-opacity="0.32"/>
<path d="M219.82 102.808C233.139 102.11 246.337 105.646 257.523 112.91L284.026 130.122C295.212 137.386 303.811 148.005 308.59 160.456L319.916 189.959C324.695 202.41 325.41 216.055 321.958 228.938L313.779 259.463C310.327 272.346 302.885 283.805 292.52 292.199L267.961 312.087C257.596 320.48 244.84 325.377 231.521 326.075L199.962 327.729C186.643 328.427 173.445 324.89 162.26 317.626L135.756 300.414C124.57 293.15 115.972 282.532 111.192 270.08L99.8669 240.577C95.0872 228.126 94.3721 214.481 97.8241 201.598L106.003 171.073C109.455 158.19 116.897 146.731 127.262 138.338L151.821 118.45C162.186 110.056 174.942 105.16 188.261 104.462L219.82 102.808Z" fill="white" fill-opacity="0.32"/>
<path d="M242.447 131.533C255.766 130.834 268.964 134.371 280.15 141.635L306.653 158.847C317.839 166.111 326.438 176.729 331.217 189.181L342.542 218.684C347.322 231.135 348.037 244.78 344.585 257.663L336.406 288.188C332.954 301.071 325.512 312.53 315.147 320.923L290.588 340.811C280.223 349.205 267.467 354.101 254.148 354.799L222.589 356.453C209.27 357.151 196.072 353.615 184.887 346.351L158.383 329.139C147.197 321.875 138.599 311.256 133.819 298.805L122.494 269.302C117.714 256.851 116.999 243.206 120.451 230.323L128.63 199.798C132.082 186.915 139.524 175.456 149.889 167.062L174.448 147.174C184.813 138.781 197.569 133.884 210.888 133.186L242.447 131.533Z" fill="white" fill-opacity="0.32"/>
</g>
</g>
<path d="M265.009 91.7799V84.4062C265.009 76.9153 265.594 70.751 266.764 65.9132C268.013 61.0754 270.08 57.2519 272.968 54.4429C275.933 51.6338 279.834 49.6831 284.672 48.5906C289.588 47.4982 295.674 46.952 302.931 46.952H330.67C340.58 46.952 347.954 48.8247 352.792 52.5701C357.629 56.3156 360.048 62.1288 360.048 70.0097H351.621C351.543 67.7469 351.153 65.7181 350.451 63.9234C349.827 62.0507 348.695 60.4901 347.056 59.2417C345.496 57.9932 343.35 57.0568 340.619 56.4326C337.966 55.7303 334.65 55.3792 330.67 55.3792H301.76C295.986 55.3792 291.265 55.7303 287.598 56.4326C283.931 57.1349 281.044 58.5394 278.937 60.6462C276.83 62.675 275.386 65.6011 274.606 69.4245C273.826 73.1699 273.436 78.1248 273.436 84.2891V91.7799C273.436 98.1003 273.748 103.172 274.372 106.996C275.074 110.741 276.362 113.628 278.234 115.657C280.185 117.686 282.877 119.051 286.311 119.754C289.744 120.378 294.192 120.69 299.654 120.69H330.67C334.728 120.69 338.044 120.456 340.619 119.988C343.272 119.441 345.34 118.388 346.822 116.827C348.383 115.267 349.475 113.082 350.1 110.273C350.724 107.386 351.036 103.601 351.036 98.9196H311.241V90.4925H360.165C360.165 98.2954 359.814 104.694 359.112 109.688C358.41 114.682 357.005 118.622 354.898 121.509C352.792 124.318 349.788 126.269 345.886 127.361C342.063 128.454 336.991 129 330.67 129H300.59C293.567 129 287.754 128.493 283.15 127.478C278.547 126.464 274.879 124.591 272.148 121.86C269.495 119.129 267.622 115.345 266.53 110.507C265.516 105.669 265.009 99.4268 265.009 91.7799ZM396.046 70.9461H418.518C423.278 70.9461 427.258 71.5703 430.457 72.8188C433.734 74.0673 436.348 75.7449 438.299 77.8517C440.25 79.9585 441.615 82.4164 442.395 85.2255C443.254 87.9565 443.683 90.8046 443.683 93.7697H435.256C435.256 88.6978 433.734 84.8353 430.691 82.1823C427.726 79.5293 423.395 78.2028 417.699 78.2028H396.865C391.013 78.2028 386.604 79.4123 383.639 81.8312C380.752 84.1721 379.309 88.1516 379.309 93.7697V129H370.998V71.1802H379.309V78.554C380.557 76.135 382.469 74.2623 385.044 72.9358C387.697 71.6093 391.364 70.9461 396.046 70.9461ZM466.459 93.6527H502.509C505.786 93.6527 508.283 94.1208 509.999 95.0572C511.716 95.9935 512.769 97.125 513.16 98.4515V90.2584C513.16 86.9031 512.067 84.094 509.882 81.8312C507.697 79.4903 504.069 78.3199 498.997 78.3199H474.418C469.424 78.3199 465.757 79.1002 463.416 80.6608C461.153 82.2213 460.021 84.1721 460.021 86.513V87.9175H451.36V86.513C451.36 81.7532 453.155 78.0077 456.744 75.2767C460.412 72.5457 465.562 71.1802 472.194 71.1802H499.817C503.718 71.1802 507.034 71.6483 509.765 72.5847C512.574 73.5211 514.837 74.8866 516.554 76.6812C518.349 78.3979 519.636 80.5437 520.416 83.1187C521.275 85.6156 521.704 88.4247 521.704 91.5459V129H513.277V124.435C512.184 125.684 510.858 126.776 509.297 127.713C507.737 128.571 505.591 129 502.86 129H466.108C460.1 129 455.613 127.83 452.648 125.489C449.761 123.07 448.317 119.324 448.317 114.252V107.23C448.317 103.25 449.761 100.012 452.648 97.5151C455.535 94.9401 460.139 93.6527 466.459 93.6527ZM500.285 100.792H469.385C466.732 100.792 464.586 100.987 462.948 101.378C461.309 101.69 460.021 102.197 459.085 102.899C458.149 103.601 457.525 104.499 457.212 105.591C456.9 106.606 456.744 107.815 456.744 109.22V113.433C456.744 114.76 456.939 115.93 457.329 116.944C457.72 117.959 458.383 118.856 459.319 119.636C460.256 120.339 461.543 120.885 463.182 121.275C464.82 121.665 466.888 121.86 469.385 121.86H500.285C504.732 121.86 507.971 121.041 509.999 119.402C512.028 117.686 513.043 114.994 513.043 111.326C513.043 107.659 511.95 105.006 509.765 103.367C507.58 101.651 504.42 100.792 500.285 100.792ZM538.063 71.1802L564.047 119.871H565.92L592.021 71.1802H601.384L570.602 129H559.6L528.7 71.1802H538.063ZM618.818 71.1802V129H610.391V71.1802H618.818ZM618.818 47.7713V56.1985H610.391V47.7713H618.818ZM656.937 121.86H672.972C675.391 121.86 677.381 121.587 678.942 121.041C680.58 120.417 681.829 119.675 682.687 118.817C683.623 117.959 684.248 117.061 684.56 116.125C684.95 115.111 685.145 114.252 685.145 113.55H694.274C694.274 115.189 693.923 116.944 693.221 118.817C692.519 120.612 691.348 122.289 689.71 123.85C688.071 125.333 685.925 126.581 683.272 127.595C680.697 128.532 677.498 129 673.675 129H656.937C650.539 129 645.467 127.283 641.722 123.85C638.054 120.339 636.221 114.877 636.221 107.464V79.6074H628.964V71.1802H636.221V60.061H644.648V71.1802H688.188V79.6074H644.648V108.517C644.648 113.277 645.818 116.71 648.159 118.817C650.5 120.846 653.426 121.86 656.937 121.86ZM704.929 71.1802L730.913 119.871H732.903L758.887 71.1802H768.25L737.116 129C735.946 131.107 734.424 133.565 732.552 136.374C730.757 139.261 728.533 141.992 725.88 144.567C723.305 147.142 720.301 149.288 716.868 151.004C713.434 152.799 709.533 153.696 705.163 153.696V145.152C707.114 145.152 709.104 144.723 711.132 143.865C713.161 143.084 715.112 141.992 716.985 140.587C718.935 139.183 720.73 137.466 722.369 135.437C724.007 133.487 725.412 131.341 726.582 129L695.566 71.1802H704.929ZM832.148 91.7799V84.4062C832.148 76.9153 832.733 70.751 833.904 65.9132C835.152 61.0754 837.22 57.2519 840.107 54.4429C843.072 51.6338 846.974 49.6831 851.811 48.5906C856.727 47.4982 862.814 46.952 870.07 46.952H897.927C907.837 46.952 915.21 48.8247 920.048 52.5701C924.886 56.3156 927.305 62.1288 927.305 70.0097H918.878C918.878 67.7469 918.527 65.7181 917.824 63.9234C917.2 62.0507 916.069 60.4901 914.43 59.2417C912.791 57.9932 910.607 57.0568 907.876 56.4326C905.223 55.7303 901.906 55.3792 897.927 55.3792H868.9C863.126 55.3792 858.405 55.7303 854.737 56.4326C851.07 57.1349 848.183 58.5394 846.076 60.6462C843.969 62.675 842.526 65.6011 841.746 69.4245C840.965 73.1699 840.575 78.1248 840.575 84.2891V91.7799C840.575 98.1003 840.887 103.172 841.511 106.996C842.214 110.741 843.501 113.628 845.374 115.657C847.325 117.686 850.017 119.051 853.45 119.754C856.883 120.378 861.331 120.69 866.793 120.69H897.927C901.828 120.69 905.105 120.417 907.759 119.871C910.49 119.324 912.674 118.466 914.313 117.296C915.952 116.047 917.122 114.526 917.824 112.731C918.605 110.858 918.995 108.634 918.995 106.059H927.422C927.422 109.883 926.915 113.238 925.9 116.125C924.886 118.934 923.208 121.314 920.867 123.265C918.605 125.138 915.6 126.581 911.855 127.595C908.188 128.532 903.662 129 898.278 129H867.729C860.707 129 854.894 128.493 850.29 127.478C845.686 126.464 842.019 124.591 839.288 121.86C836.635 119.129 834.762 115.345 833.67 110.507C832.655 105.669 832.148 99.4268 832.148 91.7799ZM951.453 47.7713V129H943.026V47.7713H951.453ZM990.941 70.9461H1014.23C1018.99 70.9461 1022.97 71.5703 1026.17 72.8188C1029.45 74.0673 1032.06 75.7449 1034.01 77.8517C1035.96 79.9585 1037.33 82.4164 1038.11 85.2255C1038.97 87.9565 1039.4 90.8046 1039.4 93.7697V106.41C1039.4 109.454 1038.97 112.341 1038.11 115.072C1037.25 117.803 1035.81 120.222 1033.78 122.328C1031.83 124.435 1029.25 126.113 1026.05 127.361C1022.86 128.532 1018.91 129.117 1014.23 129.117H990.941C982.358 129.117 975.999 127.205 971.863 123.382C967.727 119.48 965.66 113.823 965.66 106.41V93.7697C965.66 90.4925 966.128 87.4493 967.064 84.6403C968.001 81.8312 969.444 79.4123 971.395 77.3835C973.424 75.3547 976.038 73.7942 979.237 72.7017C982.436 71.5313 986.337 70.9461 990.941 70.9461ZM974.204 106.41C974.204 116.788 980.056 121.977 991.761 121.977H1013.41C1018.8 121.977 1023.05 120.807 1026.17 118.466C1029.37 116.047 1030.97 112.029 1030.97 106.41V93.6527C1030.97 88.5807 1029.45 84.7573 1026.41 82.1823C1023.44 79.5293 1019.11 78.2028 1013.41 78.2028H991.761C985.908 78.2028 981.5 79.4123 978.535 81.8312C975.647 84.1721 974.204 88.1516 974.204 93.7697V106.41ZM1075.44 129C1066.54 129 1060.1 127.01 1056.12 123.031C1052.15 118.973 1050.16 113.394 1050.16 106.293V71.1802H1058.7V106.996C1058.7 111.99 1060.18 115.735 1063.15 118.232C1066.11 120.651 1070.21 121.86 1075.44 121.86H1098.14C1100.33 121.86 1102.44 121.587 1104.46 121.041C1106.49 120.417 1108.29 119.519 1109.85 118.349C1111.41 117.101 1112.66 115.579 1113.59 113.784C1114.53 111.99 1115 109.844 1115 107.347V71.1802H1123.43V129H1115.23V122.094C1114.69 122.719 1113.98 123.46 1113.13 124.318C1112.27 125.099 1111.17 125.84 1109.85 126.542C1108.52 127.244 1106.88 127.83 1104.93 128.298C1103.06 128.766 1100.8 129 1098.14 129H1075.44ZM1134.38 106.41V93.7697C1134.38 90.4925 1134.85 87.4493 1135.78 84.6403C1136.8 81.8312 1138.32 79.4123 1140.35 77.3835C1142.38 75.3547 1144.91 73.7942 1147.96 72.7017C1151.08 71.5313 1154.74 70.9461 1158.96 70.9461H1181.66C1184.71 70.9461 1187.2 71.1412 1189.16 71.5313C1191.11 71.8434 1192.67 72.3116 1193.84 72.9358C1195.01 73.5601 1195.91 74.2623 1196.53 75.0426C1197.23 75.8229 1197.86 76.6422 1198.4 77.5006V47.7713H1206.95V129H1198.4V123.382C1197.78 124.162 1197.08 124.903 1196.3 125.606C1195.51 126.308 1194.5 126.932 1193.25 127.478C1192.08 127.947 1190.56 128.337 1188.69 128.649C1186.81 128.961 1184.47 129.117 1181.66 129.117H1158.96C1150.92 129.117 1144.8 127.244 1140.58 123.499C1136.45 119.675 1134.38 113.979 1134.38 106.41ZM1180.61 78.2028H1161.88C1155.1 78.2028 1150.22 79.5683 1147.25 82.2994C1144.29 84.9524 1142.81 88.7758 1142.81 93.7697V106.41C1142.81 111.795 1144.37 115.735 1147.49 118.232C1150.61 120.729 1155.41 121.977 1161.88 121.977H1180.61C1183.73 121.977 1186.42 121.587 1188.69 120.807C1190.95 120.027 1192.82 118.934 1194.31 117.53C1195.79 116.125 1196.88 114.487 1197.58 112.614C1198.36 110.663 1198.75 108.595 1198.75 106.41V93.7697C1198.75 89.322 1197.27 85.6156 1194.31 82.6505C1191.42 79.6854 1186.85 78.2028 1180.61 78.2028ZM1261.67 129V72.272H1285.58C1291.63 72.272 1296.95 73.4606 1301.54 75.8378C1306.19 78.2149 1309.78 81.5376 1312.32 85.8057C1314.91 90.0738 1316.21 95.0172 1316.21 100.636C1316.21 106.255 1314.91 111.198 1312.32 115.466C1309.78 119.734 1306.19 123.057 1301.54 125.434C1296.95 127.811 1291.63 129 1285.58 129H1261.67ZM1269.77 121.95H1285.09C1289.79 121.95 1293.84 121.058 1297.25 119.275C1300.7 117.492 1303.38 115.007 1305.27 111.82C1307.16 108.578 1308.11 104.85 1308.11 100.636C1308.11 96.3679 1307.16 92.6401 1305.27 89.4525C1303.38 86.2649 1300.7 83.7797 1297.25 81.9968C1293.84 80.2139 1289.79 79.3225 1285.09 79.3225H1269.77V121.95ZM1346.61 129.486C1342.02 129.486 1337.97 128.541 1334.46 126.65C1331 124.759 1328.3 122.166 1326.35 118.87C1324.46 115.574 1323.52 111.793 1323.52 107.524C1323.52 103.256 1324.44 99.4744 1326.27 96.1788C1328.16 92.8832 1330.73 90.3169 1333.97 88.48C1337.27 86.5891 1340.97 85.6436 1345.07 85.6436C1349.23 85.6436 1352.91 86.5621 1356.1 88.399C1359.28 90.2359 1361.77 92.8291 1363.55 96.1788C1365.39 99.4744 1366.31 103.337 1366.31 107.768C1366.31 108.092 1366.28 108.47 1366.23 108.902C1366.23 109.334 1366.2 109.739 1366.14 110.118H1329.6V104.526H1362.09L1358.93 106.471C1358.99 103.716 1358.42 101.257 1357.23 99.0962C1356.04 96.9352 1354.39 95.2603 1352.29 94.0718C1350.23 92.8291 1347.83 92.2078 1345.07 92.2078C1342.37 92.2078 1339.97 92.8291 1337.86 94.0718C1335.75 95.2603 1334.11 96.9622 1332.92 99.1773C1331.73 101.338 1331.13 103.824 1331.13 106.633V107.93C1331.13 110.793 1331.78 113.359 1333.08 115.628C1334.43 117.843 1336.29 119.572 1338.67 120.815C1341.05 122.058 1343.78 122.679 1346.86 122.679C1349.4 122.679 1351.69 122.247 1353.75 121.382C1355.85 120.518 1357.69 119.221 1359.26 117.492L1363.55 122.517C1361.61 124.786 1359.17 126.515 1356.26 127.703C1353.39 128.892 1350.18 129.486 1346.61 129.486ZM1387.58 129L1368.78 86.0488H1376.89L1393.58 124.948H1389.69L1406.71 86.0488H1414.33L1395.52 129H1387.58ZM1439.52 129.486C1434.93 129.486 1430.88 128.541 1427.37 126.65C1423.91 124.759 1421.21 122.166 1419.26 118.87C1417.37 115.574 1416.43 111.793 1416.43 107.524C1416.43 103.256 1417.35 99.4744 1419.18 96.1788C1421.07 92.8832 1423.64 90.3169 1426.88 88.48C1430.18 86.5891 1433.88 85.6436 1437.98 85.6436C1442.14 85.6436 1445.82 86.5621 1449.01 88.399C1452.19 90.2359 1454.68 92.8291 1456.46 96.1788C1458.3 99.4744 1459.22 103.337 1459.22 107.768C1459.22 108.092 1459.19 108.47 1459.14 108.902C1459.14 109.334 1459.11 109.739 1459.06 110.118H1422.51V104.526H1455L1451.84 106.471C1451.9 103.716 1451.33 101.257 1450.14 99.0962C1448.95 96.9352 1447.3 95.2603 1445.2 94.0718C1443.14 92.8291 1440.74 92.2078 1437.98 92.2078C1435.28 92.2078 1432.88 92.8291 1430.77 94.0718C1428.67 95.2603 1427.02 96.9622 1425.83 99.1773C1424.64 101.338 1424.05 103.824 1424.05 106.633V107.93C1424.05 110.793 1424.69 113.359 1425.99 115.628C1427.34 117.843 1429.21 119.572 1431.58 120.815C1433.96 122.058 1436.69 122.679 1439.77 122.679C1442.31 122.679 1444.6 122.247 1446.66 121.382C1448.76 120.518 1450.6 119.221 1452.17 117.492L1456.46 122.517C1454.52 124.786 1452.09 126.515 1449.17 127.703C1446.3 128.892 1443.09 129.486 1439.52 129.486ZM1470.02 129V68.8683H1477.8V129H1470.02ZM1511.05 129.486C1506.73 129.486 1502.89 128.541 1499.54 126.65C1496.19 124.759 1493.55 122.166 1491.6 118.87C1489.66 115.52 1488.68 111.738 1488.68 107.524C1488.68 103.256 1489.66 99.4744 1491.6 96.1788C1493.55 92.8832 1496.19 90.3169 1499.54 88.48C1502.89 86.5891 1506.73 85.6436 1511.05 85.6436C1515.32 85.6436 1519.13 86.5891 1522.48 88.48C1525.88 90.3169 1528.53 92.8832 1530.42 96.1788C1532.36 99.4204 1533.34 103.202 1533.34 107.524C1533.34 111.793 1532.36 115.574 1530.42 118.87C1528.53 122.166 1525.88 124.759 1522.48 126.65C1519.13 128.541 1515.32 129.486 1511.05 129.486ZM1511.05 122.679C1513.81 122.679 1516.26 122.058 1518.43 120.815C1520.64 119.572 1522.37 117.816 1523.61 115.547C1524.85 113.224 1525.48 110.55 1525.48 107.524C1525.48 104.445 1524.85 101.798 1523.61 99.5825C1522.37 97.3134 1520.64 95.5575 1518.43 94.3149C1516.26 93.0723 1513.81 92.451 1511.05 92.451C1508.3 92.451 1505.84 93.0723 1503.68 94.3149C1501.51 95.5575 1499.79 97.3134 1498.49 99.5825C1497.19 101.798 1496.54 104.445 1496.54 107.524C1496.54 110.55 1497.19 113.224 1498.49 115.547C1499.79 117.816 1501.51 119.572 1503.68 120.815C1505.84 122.058 1508.3 122.679 1511.05 122.679ZM1566.87 129.486C1563.3 129.486 1560.03 128.676 1557.06 127.055C1554.14 125.38 1551.79 122.922 1550.01 119.68C1548.28 116.439 1547.42 112.387 1547.42 107.524C1547.42 102.662 1548.26 98.61 1549.93 95.3684C1551.66 92.1268 1553.98 89.6956 1556.9 88.0748C1559.87 86.454 1563.19 85.6436 1566.87 85.6436C1571.08 85.6436 1574.81 86.5621 1578.05 88.399C1581.29 90.2359 1583.86 92.8021 1585.75 96.0978C1587.64 99.3394 1588.59 103.148 1588.59 107.524C1588.59 111.901 1587.64 115.736 1585.75 119.032C1583.86 122.328 1581.29 124.894 1578.05 126.731C1574.81 128.568 1571.08 129.486 1566.87 129.486ZM1544.1 144.722V86.0488H1551.55V97.6375L1551.07 107.605L1551.88 117.573V144.722H1544.1ZM1566.22 122.679C1568.98 122.679 1571.43 122.058 1573.59 120.815C1575.81 119.572 1577.54 117.816 1578.78 115.547C1580.08 113.224 1580.73 110.55 1580.73 107.524C1580.73 104.445 1580.08 101.798 1578.78 99.5825C1577.54 97.3134 1575.81 95.5575 1573.59 94.3149C1571.43 93.0723 1568.98 92.451 1566.22 92.451C1563.52 92.451 1561.06 93.0723 1558.85 94.3149C1556.68 95.5575 1554.96 97.3134 1553.66 99.5825C1552.42 101.798 1551.79 104.445 1551.79 107.524C1551.79 110.55 1552.42 113.224 1553.66 115.547C1554.96 117.816 1556.68 119.572 1558.85 120.815C1561.06 122.058 1563.52 122.679 1566.22 122.679ZM1618.46 129.486C1613.87 129.486 1609.82 128.541 1606.31 126.65C1602.85 124.759 1600.15 122.166 1598.2 118.87C1596.31 115.574 1595.37 111.793 1595.37 107.524C1595.37 103.256 1596.28 99.4744 1598.12 96.1788C1600.01 92.8832 1602.58 90.3169 1605.82 88.48C1609.11 86.5891 1612.82 85.6436 1616.92 85.6436C1621.08 85.6436 1624.76 86.5621 1627.94 88.399C1631.13 90.2359 1633.62 92.8291 1635.4 96.1788C1637.24 99.4744 1638.15 103.337 1638.15 107.768C1638.15 108.092 1638.13 108.47 1638.07 108.902C1638.07 109.334 1638.05 109.739 1637.99 110.118H1601.44V104.526H1633.94L1630.78 106.471C1630.83 103.716 1630.27 101.257 1629.08 99.0962C1627.89 96.9352 1626.24 95.2603 1624.13 94.0718C1622.08 92.8291 1619.68 92.2078 1616.92 92.2078C1614.22 92.2078 1611.82 92.8291 1609.71 94.0718C1607.6 95.2603 1605.95 96.9622 1604.77 99.1773C1603.58 101.338 1602.98 103.824 1602.98 106.633V107.93C1602.98 110.793 1603.63 113.359 1604.93 115.628C1606.28 117.843 1608.14 119.572 1610.52 120.815C1612.9 122.058 1615.63 122.679 1618.7 122.679C1621.24 122.679 1623.54 122.247 1625.59 121.382C1627.7 120.518 1629.54 119.221 1631.1 117.492L1635.4 122.517C1633.45 124.786 1631.02 126.515 1628.11 127.703C1625.24 128.892 1622.03 129.486 1618.46 129.486ZM1648.96 129V86.0488H1656.41V97.7186L1655.68 94.8011C1656.87 91.8297 1658.87 89.5605 1661.68 87.9938C1664.49 86.427 1667.95 85.6436 1672.05 85.6436V93.1803C1671.73 93.1263 1671.41 93.0993 1671.08 93.0993C1670.81 93.0993 1670.54 93.0993 1670.27 93.0993C1666.11 93.0993 1662.82 94.3419 1660.38 96.8271C1657.95 99.3123 1656.74 102.905 1656.74 107.605V129H1648.96ZM1745.78 72.272H1753.88V129H1745.78V72.272ZM1713.2 129H1705.09V72.272H1713.2V129ZM1746.51 103.716H1712.39V96.665H1746.51V103.716ZM1787.8 129.486C1784.12 129.486 1780.88 128.811 1778.07 127.46C1775.32 126.11 1773.16 124.057 1771.59 121.301C1770.08 118.492 1769.32 114.98 1769.32 110.766V86.0488H1777.1V109.875C1777.1 114.089 1778.1 117.249 1780.1 119.356C1782.15 121.463 1785.02 122.517 1788.69 122.517C1791.39 122.517 1793.74 121.977 1795.74 120.896C1797.74 119.761 1799.28 118.141 1800.36 116.034C1801.44 113.873 1801.98 111.279 1801.98 108.254V86.0488H1809.76V129H1802.38V117.411L1803.6 120.491C1802.2 123.354 1800.09 125.569 1797.28 127.136C1794.47 128.703 1791.31 129.486 1787.8 129.486ZM1847.34 129.486C1843.67 129.486 1840.35 128.676 1837.37 127.055C1834.46 125.38 1832.13 122.922 1830.41 119.68C1828.73 116.439 1827.89 112.387 1827.89 107.524C1827.89 102.662 1828.76 98.61 1830.49 95.3684C1832.27 92.1268 1834.62 89.6956 1837.54 88.0748C1840.51 86.454 1843.78 85.6436 1847.34 85.6436C1851.56 85.6436 1855.28 86.5621 1858.53 88.399C1861.77 90.2359 1864.33 92.8021 1866.22 96.0978C1868.12 99.3394 1869.06 103.148 1869.06 107.524C1869.06 111.901 1868.12 115.736 1866.22 119.032C1864.33 122.328 1861.77 124.894 1858.53 126.731C1855.28 128.568 1851.56 129.486 1847.34 129.486ZM1824.57 129V68.8683H1832.35V97.4754L1831.54 107.443L1832.03 117.411V129H1824.57ZM1846.69 122.679C1849.45 122.679 1851.91 122.058 1854.07 120.815C1856.28 119.572 1858.01 117.816 1859.26 115.547C1860.55 113.224 1861.2 110.55 1861.2 107.524C1861.2 104.445 1860.55 101.798 1859.26 99.5825C1858.01 97.3134 1856.28 95.5575 1854.07 94.3149C1851.91 93.0723 1849.45 92.451 1846.69 92.451C1843.99 92.451 1841.53 93.0723 1839.32 94.3149C1837.16 95.5575 1835.43 97.3134 1834.13 99.5825C1832.89 101.798 1832.27 104.445 1832.27 107.524C1832.27 110.55 1832.89 113.224 1834.13 115.547C1835.43 117.816 1837.16 119.572 1839.32 120.815C1841.53 122.058 1843.99 122.679 1846.69 122.679Z" fill="#05050A"/>
<defs>
<filter id="filter0_f_2564_379" x="0.610806" y="0.610806" width="236.97" height="178.712" filterUnits="userSpaceOnUse" color-interpolation-filters="sRGB">
<feFlood flood-opacity="0" result="BackgroundImageFix"/>
<feBlend mode="normal" in="SourceGraphic" in2="BackgroundImageFix" result="shape"/>
<feGaussianBlur stdDeviation="10.6946" result="effect1_foregroundBlur_2564_379"/>
</filter>
<filter id="filter1_f_2564_379" x="-97.8514" y="-105.068" width="445.432" height="445.433" filterUnits="userSpaceOnUse" color-interpolation-filters="sRGB">
<feFlood flood-opacity="0" result="BackgroundImageFix"/>
<feBlend mode="normal" in="SourceGraphic" in2="BackgroundImageFix" result="shape"/>
<feGaussianBlur stdDeviation="61.7148" result="effect1_foregroundBlur_2564_379"/>
</filter>
<filter id="filter2_f_2564_379" x="-94.0565" y="-102.16" width="437.374" height="437.375" filterUnits="userSpaceOnUse" color-interpolation-filters="sRGB">
<feFlood flood-opacity="0" result="BackgroundImageFix"/>
<feBlend mode="normal" in="SourceGraphic" in2="BackgroundImageFix" result="shape"/>
<feGaussianBlur stdDeviation="61.7148" result="effect1_foregroundBlur_2564_379"/>
</filter>
<linearGradient id="paint0_linear_2564_379" x1="224.151" y1="18.3619" x2="32.8176" y2="18.3619" gradientUnits="userSpaceOnUse">
<stop stop-color="#5F37FF"/>
<stop offset="0.510417" stop-color="#1584FF"/>
<stop offset="1" stop-color="#3EF3FF"/>
</linearGradient>
<linearGradient id="paint1_linear_2564_379" x1="231.615" y1="11.5522" x2="27.1583" y2="11.5522" gradientUnits="userSpaceOnUse">
<stop stop-color="#5F37FF"/>
<stop offset="0.510417" stop-color="#1584FF"/>
<stop offset="1" stop-color="#3EF3FF"/>
</linearGradient>
<linearGradient id="paint2_linear_2564_379" x1="219.888" y1="21.2698" x2="36.3188" y2="21.2698" gradientUnits="userSpaceOnUse">
<stop stop-color="#5F37FF"/>
<stop offset="0.510417" stop-color="#1584FF"/>
<stop offset="1" stop-color="#3EF3FF"/>
</linearGradient>
<linearGradient id="paint3_linear_2564_379" x1="227.049" y1="14.7364" x2="30.8892" y2="14.7364" gradientUnits="userSpaceOnUse">
<stop stop-color="#5F37FF"/>
<stop offset="0.510417" stop-color="#1584FF"/>
<stop offset="1" stop-color="#3EF3FF"/>
</linearGradient>
</defs>
</svg>
